<svg width="22" height="22" viewBox="0 0 22 22"  xmlns="http://www.w3.org/2000/svg">
<path fill-rule="evenodd" clip-rule="evenodd" d="M1.375 11C1.375 10.8177 1.44743 10.6428 1.57636 10.5139C1.7053 10.3849 1.88016 10.3125 2.0625 10.3125H18.2779L13.9508 5.98676C13.8217 5.85767 13.7491 5.68258 13.7491 5.50001C13.7491 5.31745 13.8217 5.14236 13.9508 5.01326C14.0798 4.88417 14.2549 4.81165 14.4375 4.81165C14.6201 4.81165 14.7952 4.88417 14.9242 5.01326L20.4242 10.5133C20.4883 10.5771 20.5391 10.653 20.5737 10.7365C20.6084 10.82 20.6262 10.9096 20.6262 11C20.6262 11.0904 20.6084 11.18 20.5737 11.2635C20.5391 11.347 20.4883 11.4229 20.4242 11.4868L14.9242 16.9868C14.7952 17.1159 14.6201 17.1884 14.4375 17.1884C14.2549 17.1884 14.0798 17.1159 13.9508 16.9868C13.8217 16.8577 13.7491 16.6826 13.7491 16.5C13.7491 16.3174 13.8217 16.1424 13.9508 16.0133L18.2779 11.6875H2.0625C1.88016 11.6875 1.7053 11.6151 1.57636 11.4861C1.44743 11.3572 1.375 11.1824 1.375 11Z" />
</svg>
