<svg width="20" height="20" viewBox="0 0 20 20"  xmlns="http://www.w3.org/2000/svg">
<g clip-path="url(#clip0_284_3756)">
<path fill-rule="evenodd" clip-rule="evenodd" d="M13.9122 0C17.0704 0 19.1919 2.16273 19.1919 5.38122V14.6188C19.1919 17.8654 17.1357 19.9769 13.9534 19.997L6.22559 20C3.06738 20 0.944824 17.8373 0.944824 14.6188V5.38122C0.944824 2.1336 3.00108 0.023104 6.1834 0.00401808L13.9112 0H13.9122ZM13.9122 1.50678L6.18842 1.5108C3.8499 1.52486 2.4516 2.97137 2.4516 5.38122V14.6188C2.4516 17.0447 3.86296 18.4932 6.22458 18.4932L13.9483 18.4902C16.2869 18.4761 17.6852 17.0276 17.6852 14.6188V5.38122C17.6852 2.9553 16.2748 1.50678 13.9122 1.50678ZM13.7184 13.5346C14.1343 13.5346 14.4718 13.8721 14.4718 14.288C14.4718 14.7039 14.1343 15.0414 13.7184 15.0414H6.46577C6.0499 15.0414 5.71238 14.7039 5.71238 14.288C5.71238 13.8721 6.0499 13.5346 6.46577 13.5346H13.7184ZM13.7184 9.32918C14.1343 9.32918 14.4718 9.6667 14.4718 10.0826C14.4718 10.4984 14.1343 10.836 13.7184 10.836H6.46577C6.0499 10.836 5.71238 10.4984 5.71238 10.0826C5.71238 9.6667 6.0499 9.32918 6.46577 9.32918H13.7184ZM9.23292 5.1335C9.64879 5.1335 9.98631 5.47102 9.98631 5.88689C9.98631 6.30276 9.64879 6.64028 9.23292 6.64028H6.46547C6.0496 6.64028 5.71208 6.30276 5.71208 5.88689C5.71208 5.47102 6.0496 5.1335 6.46547 5.1335H9.23292Z"/>
</g>
<defs>
<clipPath id="clip0_284_3756">
<rect width="20" height="20" fill="white"/>
</clipPath>
</defs>
</svg>
